# xmcd CD database file
#
# Track frame offsets:
#	225
#	57501
#	82361
#	109247
#	162782
#	188958
#	217326
#	286379
#
# Disc length: 4297 seconds
#
# Revision: 0
# Processed by: cddbd v1.5.1PL0 Copyright (c) Steve Scherf et al.
# Submitted via: CDex 1.51
#
DISCID=8110c608
DTITLE=Trinity - Trinity
DYEAR=2000
DGENRE=Jazz
TTITLE0=Metropolis
TTITLE1=The Doubt That Lies Within
TTITLE2=Contemplation
TTITLE3=Seward/Kenai
TTITLE4=Patience
TTITLE5='Young' Has Ended
TTITLE6=Comprimising Fate
TTITLE7=Subterfuge
EXTD=YEAR: 2000
EXTT0=
EXTT1=
EXTT2=
EXTT3=
EXTT4=
EXTT5=
EXTT6=
EXTT7=
PLAYORDER=
